<?xml version="1.0" encoding="UTF-8"?>
<svg id="Layer_1" data-name="Layer 1" xmlns="http://www.w3.org/2000/svg" viewBox="0 0 177.13 248.7">
  <defs>
    <style>
      .cls-1, .cls-2 {
        fill: #231f20;
        stroke: #231f20;
        stroke-miterlimit: 10;
      }

      .cls-2 {
        stroke-width: 2px;
      }
    </style>
  </defs>
  <polygon class="cls-1" points="87.29 4.38 65.58 85.64 85.43 58.12 87.29 4.38"/>
  <rect class="cls-2" x="86.53" y="62.52" width="4.96" height="173.08"/>
  <g>
    <path class="cls-1" d="M88.28,230.22c12.4-2.15,55.77-3.59,65.14-39.08,11.79-44.66,1.86-104.22-14.27-161.29l35.98,63.9-16.75-15.51s16.12,96.48,6.82,129.03c-8.68,30.4-77.54,40.94-77.54,40.94"/>
    <path class="cls-1" d="M90.63,230.22c-12.4-2.15-55.77-3.59-65.14-39.08-11.79-44.66-1.86-104.22,14.27-161.29L3.79,93.74l16.75-15.51s-16.12,96.48-6.82,129.03c8.68,30.4,77.54,40.94,77.54,40.94"/>
  </g>
  <polygon class="cls-1" points="91.19 4.73 112.9 86 93.05 58.47 91.19 4.73"/>
</svg>